<svg width="64" height="64" viewBox="0 0 64 64" fill="none" xmlns="http://www.w3.org/2000/svg">
<path d="M54.1813 10.6187L32.9437 3.38125C32.6875 3.29375 32.3438 3.25 32 3.25C31.6562 3.25 31.3125 3.29375 31.0562 3.38125L9.81875 10.6187C9.3 10.7937 8.875 11.3938 8.875 11.9437V42.0937C8.875 42.6437 9.23125 43.3687 9.6625 43.7125L31.2062 60.5C31.425 60.6687 31.7062 60.7562 31.9937 60.7562C32.2812 60.7562 32.5688 60.6687 32.7812 60.5L54.325 43.7125C54.7563 43.375 55.1125 42.65 55.1125 42.0937V11.9437C55.125 11.3938 54.7 10.8 54.1813 10.6187ZM43.4062 21.2937L30.1187 39.5875C30.0253 39.7154 29.9031 39.8194 29.7619 39.8911C29.6207 39.9628 29.4646 40.0001 29.3062 40.0001C29.1479 40.0001 28.9918 39.9628 28.8506 39.8911C28.7094 39.8194 28.5872 39.7154 28.4937 39.5875L20.5938 28.7125C20.3562 28.3812 20.5938 27.9187 21 27.9187H24.45C24.7688 27.9187 25.075 28.075 25.2625 28.3312L29.3062 33.8937L38.7375 20.9062C38.925 20.65 39.225 20.4937 39.55 20.4937H43C43.4062 20.5 43.6437 20.9625 43.4062 21.2937Z" fill="white"/>
</svg>
