<svg width="64" height="64" viewBox="0 0 64 64" fill="none" xmlns="http://www.w3.org/2000/svg">
<path d="M58.6667 32C58.6667 17.272 46.728 5.33337 32 5.33337C17.272 5.33337 5.33333 17.272 5.33333 32C5.33333 46.728 17.272 58.6667 32 58.6667C46.728 58.6667 58.6667 46.728 58.6667 32ZM20 23.3174C20.9253 22.2987 22.44 21.3334 24.6667 21.3334C27.7387 21.3334 29.7173 23.4454 30.4133 25.7627C31.088 28.0214 30.68 30.816 28.76 32.744C28.0941 33.3842 27.3877 33.981 26.6453 34.5307L26.5387 34.6134C25.792 35.1894 25.1253 35.712 24.5387 36.2934C23.8587 36.976 23.3013 37.72 22.9787 38.6667H28.6667C29.1971 38.6667 29.7058 38.8774 30.0809 39.2525C30.4559 39.6276 30.6667 40.1363 30.6667 40.6667C30.6667 41.1971 30.4559 41.7058 30.0809 42.0809C29.7058 42.456 29.1971 42.6667 28.6667 42.6667H20.6667C20.1362 42.6667 19.6275 42.456 19.2524 42.0809C18.8774 41.7058 18.6667 41.1971 18.6667 40.6667C18.6667 37.3414 20.064 35.112 21.7173 33.464C22.5067 32.6747 23.3653 32.0107 24.0907 31.448L24.0987 31.4427C24.8613 30.8534 25.4533 30.3947 25.9253 29.9227C26.6507 29.192 26.904 27.9894 26.5813 26.9094C26.2747 25.8934 25.5947 25.3334 24.6667 25.3334C23.7253 25.3334 23.24 25.6987 22.96 26.008C22.7962 26.1888 22.6629 26.3951 22.5653 26.6187V26.6267C22.402 27.1317 22.0447 27.5511 21.5721 27.7926C21.0995 28.0342 20.5503 28.0781 20.0453 27.9147C19.5404 27.7513 19.121 27.3941 18.8794 26.9215C18.6379 26.4489 18.594 25.8997 18.7573 25.3947L18.8507 25.1387C19.1247 24.4698 19.5126 23.8536 19.9973 23.3174H20ZM35.3333 21.3334C35.8638 21.3334 36.3725 21.5441 36.7475 21.9192C37.1226 22.2942 37.3333 22.8029 37.3333 23.3334V30.6667H41.3333V23.3334C41.3333 22.8029 41.544 22.2942 41.9191 21.9192C42.2942 21.5441 42.8029 21.3334 43.3333 21.3334C43.8638 21.3334 44.3725 21.5441 44.7475 21.9192C45.1226 22.2942 45.3333 22.8029 45.3333 23.3334V40.5867C45.3333 41.1171 45.1226 41.6259 44.7475 42.0009C44.3725 42.376 43.8638 42.5867 43.3333 42.5867C42.8029 42.5867 42.2942 42.376 41.9191 42.0009C41.544 41.6259 41.3333 41.1171 41.3333 40.5867V34.6667H35.3333C34.8029 34.6667 34.2942 34.456 33.9191 34.0809C33.544 33.7058 33.3333 33.1971 33.3333 32.6667V23.3334C33.3333 22.8029 33.544 22.2942 33.9191 21.9192C34.2942 21.5441 34.8029 21.3334 35.3333 21.3334Z" fill="white"/>
</svg>
