<svg width="36" height="36" viewBox="0 0 36 36" fill="none" xmlns="http://www.w3.org/2000/svg">
<path d="M35.4645 7.78428C34.212 8.33928 32.8665 8.71428 31.452 8.88378C32.9115 8.01047 34.0034 6.63598 34.524 5.01678C33.1527 5.83126 31.652 6.40457 30.087 6.71178C29.0345 5.58808 27.6406 4.84327 26.1214 4.59299C24.6023 4.34271 23.0431 4.60096 21.6858 5.32766C20.3285 6.05435 19.2491 7.20882 18.6152 8.61183C17.9813 10.0148 17.8283 11.5879 18.18 13.0868C15.4015 12.9473 12.6834 12.2251 10.2021 10.9671C7.72079 9.70917 5.53172 7.94352 3.77696 5.78478C3.17696 6.81978 2.83196 8.01978 2.83196 9.29778C2.83129 10.4483 3.11461 11.5811 3.65677 12.5959C4.19894 13.6106 4.9832 14.4758 5.93996 15.1148C4.83037 15.0795 3.74527 14.7797 2.77496 14.2403V14.3303C2.77484 15.9439 3.33301 17.5078 4.35473 18.7568C5.37646 20.0057 6.79881 20.8627 8.38046 21.1823C7.35113 21.4609 6.27196 21.5019 5.22446 21.3023C5.6707 22.6907 6.53995 23.9048 7.71051 24.7747C8.88107 25.6445 10.2943 26.1265 11.7525 26.1533C9.27721 28.0964 6.22029 29.1504 3.07346 29.1458C2.51603 29.1459 1.95907 29.1134 1.40546 29.0483C4.59967 31.102 8.31797 32.192 12.1155 32.1878C24.9705 32.1878 31.998 21.5408 31.998 12.3068C31.998 12.0068 31.9905 11.7038 31.977 11.4038C33.3439 10.4152 34.5238 9.19112 35.4615 7.78878L35.4645 7.78428Z" fill="white"/>
</svg>
