<svg width="26" height="24" viewBox="0 0 26 24" fill="none" xmlns="http://www.w3.org/2000/svg">
<path d="M21.2214 6.84C18.3234 2.4 12.4066 1.08 7.81808 3.84C3.35031 6.6 1.9013 12.6 4.79931 17.04L5.04082 17.4L4.07481 21L7.69733 20.04L8.05958 20.28C9.62934 21.12 11.3198 21.6 13.0104 21.6C14.8216 21.6 16.6329 21.12 18.2026 20.16C22.6704 17.28 23.9986 11.4 21.2214 6.84ZM18.6856 16.08C18.2026 16.8 17.5989 17.28 16.7536 17.4C16.2706 17.4 15.6669 17.64 13.2519 16.68C11.1991 15.72 9.50858 14.16 8.30108 12.36C7.57658 11.52 7.21433 10.44 7.09357 9.36C7.09357 8.4 7.45583 7.56 8.05958 6.96C8.30108 6.72 8.54258 6.6 8.78408 6.6H9.38783C9.62934 6.6 9.87084 6.6 9.99159 7.08C10.2331 7.68 10.8368 9.12 10.8368 9.24C10.9576 9.36 10.9576 9.6 10.8368 9.72C10.9576 9.96 10.8368 10.2 10.7161 10.32C10.5953 10.44 10.4746 10.68 10.3538 10.8C10.1123 10.92 9.99159 11.16 10.1123 11.4C10.5953 12.12 11.1991 12.84 11.8028 13.44C12.5273 14.04 13.2519 14.52 14.0971 14.88C14.3386 15 14.5801 15 14.7009 14.76C14.8216 14.52 15.4254 13.92 15.6669 13.68C15.9084 13.44 16.0291 13.44 16.2706 13.56L18.2026 14.52C18.4441 14.64 18.6856 14.76 18.8064 14.88C18.9271 15.24 18.9271 15.72 18.6856 16.08Z" fill="white"/>
</svg>
